HIERARCHY
ROOT joint_Root
{
	OFFSET 0.0 0.0 0.0
	CHANNELS 6 Xposition Yposition Zposition Zrotation Xrotation Yrotation 
	JOINT Hips
	{
		OFFSET -0.726466 93.3139 -2.00062
		CHANNELS 6 Xposition Yposition Zposition Zrotation Xrotation Yrotation 
		JOINT Spine
		{
			OFFSET 15.7357 0.0 0.0
			CHANNELS 6 Xposition Yposition Zposition Zrotation Xrotation Yrotation 
			JOINT Chest
			{
				OFFSET 8.98455 -0.406207 0.0
				CHANNELS 6 Xposition Yposition Zposition Zrotation Xrotation Yrotation 
				JOINT Neck
				{
					OFFSET 16.3773 0.0 0.0
					CHANNELS 6 Xposition Yposition Zposition Zrotation Xrotation Yrotation 
					JOINT Head
					{
						OFFSET 6.45672 0.0 0.0
						CHANNELS 6 Xposition Yposition Zposition Zrotation Xrotation Yrotation 
						End Site
						{
							OFFSET 0.0 0.0 0.0
						}
					}
				}
				JOINT Shoulder_L
				{
					OFFSET 12.9942 -0.242716 4.98039
					CHANNELS 6 Xposition Yposition Zposition Zrotation Xrotation Yrotation 
					JOINT UpperArm_L
					{
						OFFSET 5.34809 0.0 0.0
						CHANNELS 6 Xposition Yposition Zposition Zrotation Xrotation Yrotation 
						JOINT LowerArm_L
						{
							OFFSET 24.3286 1.87007e-05 0.0
							CHANNELS 6 Xposition Yposition Zposition Zrotation Xrotation Yrotation 
							JOINT Hand_L
							{
								OFFSET 22.2916 0.0 0.0
								CHANNELS 6 Xposition Yposition Zposition Zrotation Xrotation Yrotation 
								End Site
								{
									OFFSET 0.0 0.0 0.0
								}
							}
						}
					}
				}
				JOINT Shoulder_R
				{
					OFFSET 12.9945 -0.242716 -4.98039
					CHANNELS 6 Xposition Yposition Zposition Zrotation Xrotation Yrotation 
					JOINT UpperArm_R
					{
						OFFSET -5.34813 0.0 0.0
						CHANNELS 6 Xposition Yposition Zposition Zrotation Xrotation Yrotation 
						JOINT LowerArm_R
						{
							OFFSET -24.3289 0.000322201 0.0
							CHANNELS 6 Xposition Yposition Zposition Zrotation Xrotation Yrotation 
							JOINT Hand_R
							{
								OFFSET -22.2915 -0.000108084 0.0
								CHANNELS 6 Xposition Yposition Zposition Zrotation Xrotation Yrotation 
								End Site
								{
									OFFSET 0.0 0.0 0.0
								}
							}
						}
					}
				}
			}
		}
		JOINT UpperLeg_L
		{
			OFFSET -2.19248 -6.46944 0.0
			CHANNELS 6 Xposition Yposition Zposition Zrotation Xrotation Yrotation 
			JOINT LowerLeg_L
			{
				OFFSET 39.0811 0.0 -1.23785e-05
				CHANNELS 6 Xposition Yposition Zposition Zrotation Xrotation Yrotation 
				JOINT Foot_L
				{
					OFFSET 40.9854 0.0 -1.26872e-05
					CHANNELS 6 Xposition Yposition Zposition Zrotation Xrotation Yrotation 
					JOINT Toes_L
					{
						OFFSET 11.7543 0.0 0.0
						CHANNELS 6 Xposition Yposition Zposition Zrotation Xrotation Yrotation 
						End Site
						{
							OFFSET 0.0 0.0 0.0
						}
					}
				}
			}
		}
		JOINT UpperLeg_R
		{
			OFFSET -2.19251 6.46944 0.0
			CHANNELS 6 Xposition Yposition Zposition Zrotation Xrotation Yrotation 
			JOINT LowerLeg_R
			{
				OFFSET -39.0811 -0.00228153 -0.0401928
				CHANNELS 6 Xposition Yposition Zposition Zrotation Xrotation Yrotation 
				JOINT Foot_R
				{
					OFFSET -40.9854 0.0 0.0
					CHANNELS 6 Xposition Yposition Zposition Zrotation Xrotation Yrotation 
					JOINT Toes_R
					{
						OFFSET -11.7543 0.0 0.0
						CHANNELS 6 Xposition Yposition Zposition Zrotation Xrotation Yrotation 
						End Site
						{
							OFFSET 0.0 0.0 0.0
						}
					}
				}
			}
		}
	}
}
MOTION
Frames:	6
Frame Time:	0.0333333
0.000000 0.000000 0.000000 0.000000 0.000000 -0.000000 -0.050422 93.054900 -1.342240 88.973500 -3.226060 1.263700 15.735700 0.000005 -0.000001 95.680900 86.790200 -95.671300 8.984550 -0.406207 -0.000000 -1.377970 0.634569 0.026850 16.377300 -0.000001 -0.000001 2.322560 -2.304830 3.098940 6.456720 -0.000001 -0.000000 6.308400 -1.345150 -3.025570 12.994200 -0.242716 4.980390 -90.673600 2.152840 -72.621200 5.348090 -0.000007 -0.000001 -66.406100 39.234500 -14.531200 24.328600 0.000019 0.000005 5.045490 12.174300 -22.716700 22.291600 -0.000001 0.000005 2.111550 5.491280 -6.184370 12.994500 -0.242716 -4.980390 87.569700 8.219630 -73.465900 -5.348130 -0.000001 -0.000004 -64.177600 40.408200 -13.039800 -24.328900 0.000322 -0.000009 5.042510 13.559000 -20.628100 -22.291500 -0.000108 -0.000004 4.633900 5.346100 -1.257430 -2.192480 -6.469440 -0.000000 -177.076000 -8.991720 -3.085480 39.081100 -0.000007 -0.000012 -0.051263 0.171124 16.676300 40.985400 -0.000006 -0.000013 0.067627 4.137630 -62.488300 11.754300 -0.000000 0.000003 -0.000003 -0.000042 -16.579200 -2.192510 6.469440 -0.000001 179.004000 10.870500 178.994000 -39.081100 -0.002282 -0.040193 -0.047046 0.207763 13.630100 -40.985400 0.000008 0.000006 0.620516 7.661660 -61.567000 -11.754300 -0.000006 -0.000006 -0.005850 -0.069466 -19.400100
0.000000 0.000000 0.000000 0.000000 0.000000 -0.000000 -0.032557 93.055800 -1.410010 88.978100 -3.154210 1.356830 15.735700 0.000005 -0.000001 95.624600 86.741100 -95.602700 8.984550 -0.406207 -0.000000 -1.279760 0.636949 0.051043 16.377300 -0.000001 -0.000001 2.256200 -2.336460 3.240450 6.456720 -0.000001 -0.000000 5.981440 -1.240170 -3.223660 12.994200 -0.242716 4.980390 -90.714100 2.321560 -72.898000 5.348090 -0.000007 -0.000001 -65.360700 37.692600 -15.575600 24.328600 0.000019 0.000005 5.767150 13.238300 -23.798300 22.291600 -0.000001 0.000005 -1.154340 5.483460 -5.877380 12.994500 -0.242716 -4.980390 87.608300 8.106720 -73.501600 -5.348130 -0.000001 -0.000004 -62.870300 39.632500 -14.132900 -24.328900 0.000322 -0.000009 6.093660 14.578400 -22.985900 -22.291500 -0.000108 -0.000004 0.376291 5.314740 -0.332631 -2.192480 -6.469440 -0.000000 -177.089000 -8.921870 -3.067390 39.081100 -0.000007 -0.000012 -0.050506 0.168186 16.714800 40.985400 -0.000006 -0.000013 0.080850 4.110460 -62.457000 11.754300 -0.000000 0.000003 -0.000002 -0.000028 -16.578600 -2.192510 6.469440 -0.000001 178.996000 10.786300 179.011000 -39.081100 -0.002282 -0.040193 -0.046889 0.205964 13.703300 -40.985400 0.000008 0.000006 0.683748 7.549340 -61.575900 -11.754300 -0.000006 -0.000006 -0.005790 -0.068914 -19.377600
0.000000 0.000000 0.000000 0.000000 0.000000 -0.000000 -0.020351 93.060000 -1.536050 89.005200 -3.023440 1.496730 15.735700 0.000005 -0.000001 94.954400 86.629900 -94.926200 8.984550 -0.406207 -0.000000 -1.051220 0.579800 0.061718 16.377300 -0.000001 -0.000001 2.312450 -2.295790 3.284530 6.456720 -0.000001 -0.000000 4.909110 -1.059010 -3.256400 12.994200 -0.242716 4.980390 -90.795400 2.591950 -72.933900 5.348090 -0.000007 -0.000001 -63.029800 34.750000 -17.967300 24.328600 0.000019 0.000005 6.101270 12.479200 -26.321000 22.291600 -0.000001 0.000005 -3.105900 5.465030 -5.184440 12.994500 -0.242716 -4.980390 87.607500 7.993910 -73.277700 -5.348130 -0.000001 -0.000004 -60.360600 37.377700 -16.737500 -24.328900 0.000322 -0.000009 7.410380 15.025500 -26.645000 -22.291500 -0.000108 -0.000004 -5.200700 5.290330 0.350991 -2.192480 -6.469440 -0.000000 -177.109000 -8.852470 -3.046980 39.081100 -0.000007 -0.000012 -0.050854 0.169102 16.737500 40.985400 -0.000006 -0.000013 0.093436 4.142650 -62.367300 11.754300 -0.000000 0.000003 -0.000002 -0.000033 -16.578800 -2.192510 6.469440 -0.000001 178.965000 10.885100 179.011000 -39.081100 -0.002282 -0.040193 -0.047062 0.204918 13.816300 -40.985400 0.000008 0.000006 0.730791 7.445920 -61.553800 -11.754300 -0.000006 -0.000006 -0.005824 -0.069229 -19.390500
0.000000 0.000000 0.000000 0.000000 0.000000 -0.000000 -0.022265 93.057200 -1.745950 89.048000 -2.899840 1.635900 15.735700 0.000005 -0.000001 94.177300 86.552700 -94.154800 8.984550 -0.406207 -0.000000 -0.889808 0.500418 0.049000 16.377300 -0.000001 -0.000001 2.682390 -2.157470 3.224240 6.456720 -0.000001 -0.000000 3.622250 -0.813752 -3.126570 12.994200 -0.242716 4.980390 -90.814300 2.644900 -72.880900 5.348090 -0.000007 -0.000001 -59.646100 30.794900 -21.590300 24.328600 0.000019 0.000005 6.925420 11.608100 -31.116800 22.291600 -0.000001 0.000005 -1.335410 5.484380 -5.905610 12.994500 -0.242716 -4.980390 87.608400 7.812660 -72.920500 -5.348130 -0.000001 -0.000004 -57.208600 33.354500 -20.406900 -24.328900 0.000322 -0.000009 9.282310 15.019700 -32.238900 -22.291500 -0.000108 -0.000004 -7.540800 5.242390 1.632920 -2.192480 -6.469440 -0.000000 -177.150000 -8.839390 -3.133280 39.081100 -0.000007 -0.000012 -0.050016 0.165043 16.859100 40.985400 -0.000006 -0.000013 0.130148 4.267670 -62.272700 11.754300 -0.000000 0.000003 -0.000003 -0.000038 -16.579000 -2.192510 6.469440 -0.000001 178.914000 10.977700 178.907000 -39.081100 -0.002282 -0.040193 -0.049424 0.211235 14.022700 -40.985400 0.000008 0.000006 0.619566 7.407120 -61.498600 -11.754300 -0.000006 -0.000006 -0.005974 -0.070601 -19.446400
0.000000 0.000000 0.000000 0.000000 0.000000 -0.000000 -0.013380 93.079400 -1.965470 89.049900 -2.856380 1.849220 15.735700 0.000005 -0.000001 94.256400 86.472700 -94.209500 8.984550 -0.406207 -0.000000 -0.731109 0.519999 0.097143 16.377300 -0.000001 -0.000001 3.039950 -2.008200 3.236960 6.456720 -0.000001 -0.000000 2.689000 -0.627718 -3.175380 12.994200 -0.242716 4.980390 -90.797500 2.599010 -72.935700 5.348090 -0.000007 -0.000001 -55.580900 25.752300 -26.359300 24.328600 0.000019 0.000005 8.088230 10.591600 -37.708500 22.291600 -0.000001 0.000005 0.973294 5.521210 -7.404880 12.994500 -0.242716 -4.980390 87.641000 7.561800 -72.617600 -5.348130 -0.000001 -0.000004 -53.852800 27.877600 -24.621400 -24.328900 0.000322 -0.000009 12.405500 14.927600 -40.492700 -22.291500 -0.000108 -0.000004 -4.352630 5.242640 1.633920 -2.192480 -6.469440 -0.000000 -177.124000 -8.897070 -3.031210 39.081100 -0.000007 -0.000012 -0.049099 0.162934 16.769900 40.985400 -0.000006 -0.000013 0.149142 4.399180 -62.073100 11.754300 -0.000000 0.000003 -0.000001 -0.000016 -16.578100 -2.192510 6.469440 -0.000001 178.901000 10.985600 179.021000 -39.081100 -0.002282 -0.040193 -0.046916 0.202532 13.933800 -40.985400 0.000008 0.000006 0.626262 7.421000 -61.312300 -11.754300 -0.000006 -0.000006 -0.005900 -0.069925 -19.418800
0.000000 0.000000 0.000000 0.000000 0.000000 -0.000000 0.005825 93.097300 -2.203150 89.025500 -2.829820 1.851200 15.735700 0.000005 -0.000001 94.646800 86.510800 -94.572600 8.984550 -0.406207 -0.000000 -0.810995 0.559661 0.152449 16.377300 -0.000001 -0.000001 3.297470 -1.866820 3.229520 6.456720 -0.000001 -0.000000 2.323240 -0.450968 -3.117750 12.994200 -0.242716 4.980390 -90.653100 2.160010 -73.173000 5.348090 -0.000007 -0.000001 -52.244100 19.329000 -31.332300 24.328600 0.000019 0.000005 10.020100 9.917260 -45.729200 22.291600 -0.000001 0.000005 3.981610 5.547470 -8.572170 12.994500 -0.242716 -4.980390 87.704800 7.247250 -72.374500 -5.348130 -0.000001 -0.000004 -50.548300 21.450800 -29.361100 -24.328900 0.000322 -0.000009 16.003300 13.611600 -50.627200 -22.291500 -0.000108 -0.000004 2.147340 5.282020 0.592947 -2.192480 -6.469440 -0.000000 -177.128000 -8.947770 -3.211260 39.081100 -0.000007 -0.000012 -0.047659 0.158138 16.771600 40.985400 -0.000006 -0.000013 0.169426 4.423600 -61.895200 11.754300 -0.000000 0.000003 -0.000002 -0.000030 -16.578700 -2.192510 6.469440 -0.000001 178.945000 11.008100 178.880000 -39.081100 -0.002282 -0.040193 -0.046118 0.200111 13.880600 -40.985400 0.000008 0.000006 0.628737 7.466670 -61.118400 -11.754300 -0.000006 -0.000006 -0.005833 -0.069310 -19.393800
